# xmcd
#
# Track frame offsets:
#	150
#	19350
#	36558
#	55582
#	71463
#	86483
#	104388
#	121094
#	134640
#	149001
#
# Disc length: 2292 seconds
#
# Revision: 1
# Processed by: cddbd v1.5.2PL0 Copyright (c) Steve Scherf et al.
# Submitted via: audiograbber 1.83.01
#
DISCID=9208f20a
DTITLE=Duffy - Duffy Rockferry
DYEAR=2008
DGENRE=Pop
TTITLE0=Duffy - Rockferry
TTITLE1=Duffy - Warwick Avenue
TTITLE2=Duffy - Serious
TTITLE3=Duffy - Stepping Stone
TTITLE4=Duffy - Syrup and Honey
TTITLE5=Duffy - Hanging on too long
TTITLE6=Duffy - Mercy
TTITLE7=Duffy - Delayed Devotion
TTITLE8=Duffy - I'm scared
TTITLE9=Duffy - Distant Dreamer
EXTD=
EXTT0=
EXTT1=
EXTT2=
EXTT3=
EXTT4=
EXTT5=
EXTT6=
EXTT7=
EXTT8=
EXTT9=
PLAYORDER=
